<?xml version="1.0" encoding="UTF-8" standalone="no"?>
<!DOCTYPE svg PUBLIC "-//W3C//DTD SVG 1.1//EN"
 "http://www.w3.org/Graphics/SVG/1.1/DTD/svg11.dtd">
<!-- Generated by graphviz version 2.38.0 (20140413.2041)
 -->
<!-- Title: states Pages: 1 -->
<svg width="376pt" height="388pt"
 viewBox="0.00 0.00 376.04 388.00" xmlns="http://www.w3.org/2000/svg" xmlns:xlink="http://www.w3.org/1999/xlink">
<g id="graph0" class="graph" transform="scale(1 1) rotate(0) translate(4 384)">
<title>states</title>
<polygon fill="white" stroke="none" points="-4,4 -4,-384 372.039,-384 372.039,4 -4,4"/>
<!-- Bookmark created -->
<g id="node1" class="node"><title>Bookmark created</title>
<ellipse fill="none" stroke="black" cx="82.67" cy="-190" rx="75.3529" ry="18"/>
<text text-anchor="middle" x="82.67" y="-185.8" font-family="Times,serif" font-size="14.00">Bookmark created</text>
</g>
<!-- Bookmark List shown -->
<g id="node2" class="node"><title>Bookmark List shown</title>
<ellipse fill="none" stroke="black" cx="196.67" cy="-104" rx="88.9275" ry="18"/>
<text text-anchor="middle" x="196.67" y="-99.8" font-family="Times,serif" font-size="14.00">Bookmark List shown</text>
</g>
<!-- Bookmark created&#45;&gt;Bookmark List shown -->
<g id="edge1" class="edge"><title>Bookmark created&#45;&gt;Bookmark List shown</title>
<path fill="none" stroke="black" d="M116.662,-173.936C127.653,-168.375 139.594,-161.562 149.67,-154 158.958,-147.029 168.058,-138.167 175.739,-129.902"/>
<polygon fill="black" stroke="black" points="178.544,-132.017 182.628,-122.241 173.339,-127.336 178.544,-132.017"/>
<text text-anchor="middle" x="211.355" y="-142.8" font-family="Times,serif" font-size="14.00">bookmark index</text>
</g>
<!-- Bookmark List shown&#45;&gt;Bookmark created -->
<g id="edge2" class="edge"><title>Bookmark List shown&#45;&gt;Bookmark created</title>
<path fill="none" stroke="black" d="M133.064,-116.635C96.7382,-123.926 57.3507,-133.197 51.9972,-140 45.8829,-147.77 49.0168,-156.816 55.1866,-165.006"/>
<polygon fill="black" stroke="black" points="52.5857,-167.348 61.8294,-172.526 57.8319,-162.714 52.5857,-167.348"/>
<text text-anchor="middle" x="99.5065" y="-142.8" font-family="Times,serif" font-size="14.00">bookmark create</text>
</g>
<!-- Bookmark shown -->
<g id="node3" class="node"><title>Bookmark shown</title>
<ellipse fill="none" stroke="black" cx="82.67" cy="-18" rx="72.9911" ry="18"/>
<text text-anchor="middle" x="82.67" y="-13.8" font-family="Times,serif" font-size="14.00">Bookmark shown</text>
</g>
<!-- Bookmark List shown&#45;&gt;Bookmark shown -->
<g id="edge3" class="edge"><title>Bookmark List shown&#45;&gt;Bookmark shown</title>
<path fill="none" stroke="black" d="M192.488,-85.5926C189.194,-75.2093 183.625,-62.4456 174.67,-54 165.929,-45.7556 155.049,-39.3997 143.865,-34.5169"/>
<polygon fill="black" stroke="black" points="145.024,-31.211 134.439,-30.7526 142.428,-37.7118 145.024,-31.211"/>
<text text-anchor="middle" x="230.582" y="-56.8" font-family="Times,serif" font-size="14.00">bookmark show</text>
</g>
<!-- Bookmark shown&#45;&gt;Bookmark created -->
<g id="edge4" class="edge"><title>Bookmark shown&#45;&gt;Bookmark created</title>
<path fill="none" stroke="black" d="M54.1182,-34.8486C36.374,-46.4474 15.083,-63.9804 4.9972,-86 -1.66573,-100.547 -1.66573,-107.453 4.9972,-122 13.5071,-140.579 29.9942,-155.964 45.5971,-167.285"/>
<polygon fill="black" stroke="black" points="43.8966,-170.364 54.1182,-173.151 47.8659,-164.598 43.8966,-170.364"/>
<text text-anchor="middle" x="52.5065" y="-99.8" font-family="Times,serif" font-size="14.00">bookmark create</text>
</g>
<!-- Bookmark shown&#45;&gt;Bookmark List shown -->
<g id="edge5" class="edge"><title>Bookmark shown&#45;&gt;Bookmark List shown</title>
<path fill="none" stroke="black" d="M76.3301,-35.9998C73.6806,-46.2296 72.5746,-58.9752 79.3009,-68 87.1483,-78.529 98.0401,-86.0149 110.051,-91.3131"/>
<polygon fill="black" stroke="black" points="108.833,-94.5947 119.421,-94.9524 111.367,-88.0695 108.833,-94.5947"/>
<text text-anchor="middle" x="125.355" y="-56.8" font-family="Times,serif" font-size="14.00">bookmark index</text>
</g>
<!-- Initial State -->
<g id="node4" class="node"><title>Initial State</title>
<ellipse fill="none" stroke="black" cx="249.67" cy="-362" rx="51.2405" ry="18"/>
<text text-anchor="middle" x="249.67" y="-357.8" font-family="Times,serif" font-size="14.00">Initial State</text>
</g>
<!-- User created -->
<g id="node5" class="node"><title>User created</title>
<ellipse fill="none" stroke="black" cx="249.67" cy="-276" rx="54.5801" ry="18"/>
<text text-anchor="middle" x="249.67" y="-271.8" font-family="Times,serif" font-size="14.00">User created</text>
</g>
<!-- Initial State&#45;&gt;User created -->
<g id="edge6" class="edge"><title>Initial State&#45;&gt;User created</title>
<path fill="none" stroke="black" d="M249.67,-343.595C249.67,-332.257 249.67,-317.227 249.67,-304.315"/>
<polygon fill="black" stroke="black" points="253.17,-304.095 249.67,-294.095 246.17,-304.095 253.17,-304.095"/>
<text text-anchor="middle" x="279.786" y="-314.8" font-family="Times,serif" font-size="14.00">user create</text>
</g>
<!-- User created&#45;&gt;Bookmark created -->
<g id="edge7" class="edge"><title>User created&#45;&gt;Bookmark created</title>
<path fill="none" stroke="black" d="M216.776,-261.404C202.282,-255.195 185.139,-247.552 169.997,-240 152.701,-231.374 133.957,-220.998 118.285,-212.02"/>
<polygon fill="black" stroke="black" points="119.857,-208.886 109.447,-206.919 116.358,-214.949 119.857,-208.886"/>
<text text-anchor="middle" x="217.506" y="-228.8" font-family="Times,serif" font-size="14.00">bookmark create</text>
</g>
<!-- User created&#45;&gt;Bookmark List shown -->
<g id="edge8" class="edge"><title>User created&#45;&gt;Bookmark List shown</title>
<path fill="none" stroke="black" d="M257.996,-257.948C260.31,-252.364 262.507,-246.041 263.67,-240 269.299,-210.77 291.053,-189.267 260.67,-140 257.267,-134.482 252.667,-129.772 247.483,-125.767"/>
<polygon fill="black" stroke="black" points="249.2,-122.704 238.946,-120.038 245.3,-128.516 249.2,-122.704"/>
<text text-anchor="middle" x="322.355" y="-185.8" font-family="Times,serif" font-size="14.00">bookmark index</text>
</g>
</g>
</svg>
